<?xml version="1.0" encoding="utf-8"?>
<!-- Generator: Adobe Illustrator 24.2.1, SVG Export Plug-In . SVG Version: 6.00 Build 0)  -->
<svg version="1.1"
  xmlns="http://www.w3.org/2000/svg"
  xmlns:xlink="http://www.w3.org/1999/xlink" x="0px" y="0px" viewBox="0 0 135 40" style="enable-background:new 0 0 135 40;" xml:space="preserve">
  <style type="text/css">
	.st0{fill:#A6A6A6;}
	.st1{fill:#FFFFFF;}
	.st2{fill:url(#SVGID_1_);}
	.st3{fill:url(#SVGID_2_);}
	.st4{fill:url(#SVGID_3_);}
	.st5{fill:url(#SVGID_4_);}
	.st6{opacity:0.2;enable-background:new    ;}
	.st7{opacity:0.12;enable-background:new    ;}
	.st8{opacity:0.25;fill:#FFFFFF;enable-background:new    ;}
	.st9{fill:#FFFFFF;stroke:#FFFFFF;stroke-width:0.2;stroke-miterlimit:10;}
  </style>
  <g id="artwork">
  </g>
  <g id="Layer_3">
    <g>
      <g>
        <g>
          <path d="M130,40H5c-2.8,0-5-2.3-5-5V5c0-2.8,2.3-5,5-5h125c2.8,0,5,2.3,5,5v30C135,37.8,132.8,40,130,40z"/>
        </g>
        <g>
          <g>
            <path class="st0" d="M130,0.8c2.3,0,4.2,1.9,4.2,4.2v30c0,2.3-1.9,4.2-4.2,4.2H5c-2.3,0-4.2-1.9-4.2-4.2V5
						c0-2.3,1.9-4.2,4.2-4.2H130 M130,0H5C2.3,0,0,2.3,0,5v30c0,2.8,2.3,5,5,5h125c2.8,0,5-2.3,5-5V5C135,2.3,132.8,0,130,0L130,0z" />
          </g>
        </g>
        <path class="st1" d="M64.7,12.8c-2.1,0-3.7,1.6-3.7,3.7c0,2.1,1.7,3.7,3.7,3.7c2.1,0,3.7-1.6,3.7-3.7
				C68.5,14.4,66.8,12.8,64.7,12.8z M64.7,18.8c-1.1,0-2.1-0.9-2.1-2.3c0-1.3,1-2.3,2.1-2.3c1.1,0,2.1,0.9,2.1,2.3
				C66.8,17.8,65.9,18.8,64.7,18.8z M56.6,12.8c-2.1,0-3.7,1.6-3.7,3.7c0,2.1,1.7,3.7,3.7,3.7s3.7-1.6,3.7-3.7
				C60.3,14.4,58.6,12.8,56.6,12.8z M56.6,18.8c-1.1,0-2.1-0.9-2.1-2.3c0-1.3,1-2.3,2.1-2.3c1.1,0,2.1,0.9,2.1,2.3
				C58.7,17.8,57.7,18.8,56.6,18.8z M46.9,13.9v1.6h3.8c-0.1,0.9-0.4,1.5-0.9,2c-0.5,0.5-1.4,1.2-2.9,1.2c-2.3,0-4.1-1.9-4.1-4.2
				s1.8-4.2,4.1-4.2c1.3,0,2.2,0.5,2.8,1.1l1.1-1.1c-0.9-0.9-2.2-1.6-4-1.6c-3.2,0-5.9,2.6-5.9,5.8c0,3.2,2.7,5.8,5.9,5.8
				c1.7,0,3-0.6,4-1.6c1-1,1.4-2.5,1.4-3.7c0-0.4,0-0.7-0.1-1H46.9z M86.5,15.2c-0.3-0.8-1.3-2.4-3.2-2.4c-1.9,0-3.5,1.5-3.5,3.7
				c0,2.1,1.6,3.7,3.7,3.7c1.7,0,2.7-1,3.1-1.6l-1.3-0.8c-0.4,0.6-1,1-1.8,1s-1.4-0.4-1.8-1.1l5-2.1L86.5,15.2z M81.4,16.4
				c0-1.4,1.1-2.2,1.9-2.2c0.6,0,1.2,0.3,1.4,0.8L81.4,16.4z M77.4,20H79V9.1h-1.6V20z M74.7,13.6L74.7,13.6c-0.4-0.4-1.1-0.8-2-0.8
				c-1.9,0-3.6,1.6-3.6,3.7c0,2.1,1.7,3.7,3.6,3.7c0.9,0,1.6-0.4,2-0.8h0.1v0.5c0,1.4-0.8,2.2-2,2.2c-1,0-1.6-0.7-1.9-1.3l-1.4,0.6
				c0.4,1,1.5,2.2,3.3,2.2c1.9,0,3.5-1.1,3.5-3.9V13h-1.5V13.6z M72.8,18.8c-1.1,0-2.1-0.9-2.1-2.2c0-1.3,0.9-2.3,2.1-2.3
				c1.1,0,2,1,2,2.3C74.8,17.8,74,18.8,72.8,18.8z M94.2,9.1h-3.9V20h1.6v-4.1h2.3c1.8,0,3.6-1.3,3.6-3.4S96,9.1,94.2,9.1z
				 M94.2,14.3h-2.3v-3.7h2.3c1.2,0,1.9,1,1.9,1.9C96.1,13.3,95.4,14.3,94.2,14.3z M104.3,12.8c-1.2,0-2.4,0.5-2.9,1.7l1.4,0.6
				c0.3-0.6,0.9-0.8,1.5-0.8c0.8,0,1.7,0.5,1.7,1.4v0.1c-0.3-0.2-0.9-0.4-1.7-0.4c-1.6,0-3.1,0.9-3.1,2.5c0,1.5,1.3,2.4,2.7,2.4
				c1.1,0,1.7-0.5,2.1-1.1h0.1V20h1.6v-4.2C107.6,13.9,106.1,12.8,104.3,12.8z M104.1,18.8c-0.5,0-1.3-0.3-1.3-0.9
				c0-0.8,0.9-1.2,1.7-1.2c0.7,0,1.1,0.2,1.5,0.4C105.9,18,105,18.8,104.1,18.8z M113.3,13l-1.9,4.7h-0.1l-1.9-4.7h-1.8l2.9,6.6
				l-1.7,3.7h1.7l4.5-10.3H113.3z M98.6,20h1.6V9.1h-1.6V20z"/>
        <g>

          <linearGradient id="SVGID_1_" gradientUnits="userSpaceOnUse" x1="21.7998" y1="33.2904" x2="5.0174" y2="16.508" gradientTransform="matrix(1 0 0 -1 0 42.0002)">
            <stop offset="0" style="stop-color:#00A0FF"/>
            <stop offset="6.574450e-03" style="stop-color:#00A1FF"/>
            <stop offset="0.2601" style="stop-color:#00BEFF"/>
            <stop offset="0.5122" style="stop-color:#00D2FF"/>
            <stop offset="0.7604" style="stop-color:#00DFFF"/>
            <stop offset="1" style="stop-color:#00E3FF"/>
          </linearGradient>
          <path class="st2" d="M10.4,7.5C10.1,7.8,10,8.3,10,8.9v22.1c0,0.6,0.2,1.1,0.5,1.4l0.1,0.1l12.4-12.4V20v-0.1L10.4,7.5L10.4,7.5
					z"/>

          <linearGradient id="SVGID_2_" gradientUnits="userSpaceOnUse" x1="33.8345" y1="21.9986" x2="9.6376" y2="21.9986" gradientTransform="matrix(1 0 0 -1 0 42.0002)">
            <stop offset="0" style="stop-color:#FFE000"/>
            <stop offset="0.4087" style="stop-color:#FFBD00"/>
            <stop offset="0.7754" style="stop-color:#FFA500"/>
            <stop offset="1" style="stop-color:#FF9C00"/>
          </linearGradient>
          <path class="st3" d="M27,24.3l-4.1-4.1V20v-0.1l4.1-4.1l0.1,0.1l4.9,2.8c1.4,0.8,1.4,2.1,0,2.9L27,24.3L27,24.3z"/>

          <linearGradient id="SVGID_3_" gradientUnits="userSpaceOnUse" x1="24.827" y1="19.704" x2="2.0688" y2="-3.0543" gradientTransform="matrix(1 0 0 -1 0 42.0002)">
            <stop offset="0" style="stop-color:#FF3A44"/>
            <stop offset="1" style="stop-color:#C31162"/>
          </linearGradient>
          <path class="st4" d="M27.1,24.2L22.9,20L10.4,32.5c0.5,0.5,1.2,0.5,2.1,0.1L27.1,24.2"/>

          <linearGradient id="SVGID_4_" gradientUnits="userSpaceOnUse" x1="7.2974" y1="41.8239" x2="17.4599" y2="31.6614" gradientTransform="matrix(1 0 0 -1 0 42.0002)">
            <stop offset="0" style="stop-color:#32A071"/>
            <stop offset="6.850000e-02" style="stop-color:#2DA771"/>
            <stop offset="0.4762" style="stop-color:#15CF74"/>
            <stop offset="0.8009" style="stop-color:#06E775"/>
            <stop offset="1" style="stop-color:#00F076"/>
          </linearGradient>
          <path class="st5" d="M27.1,15.8L12.5,7.5c-0.9-0.5-1.6-0.4-2.1,0.1L22.9,20L27.1,15.8z"/>
          <g>
            <path class="st6" d="M27,24.1l-14.5,8.2c-0.8,0.5-1.5,0.4-2,0l0,0l-0.1,0.1l0,0l0.1,0.1l0,0c0.5,0.4,1.2,0.5,2,0L27,24.1
						L27,24.1z"/>
            <path class="st7" d="M10.4,32.3C10.1,32,10,31.5,10,30.9v0.1c0,0.6,0.2,1.1,0.5,1.4V32.3L10.4,32.3z"/>
          </g>
          <path class="st7" d="M32,21.3l-5,2.8l0.1,0.1l4.9-2.8c0.7-0.4,1-0.9,1-1.4l0,0C33,20.5,32.6,20.9,32,21.3z"/>
          <path class="st8" d="M12.5,7.6L32,18.7c0.6,0.4,1,0.8,1,1.3l0,0c0-0.5-0.3-1-1-1.4L12.5,7.5C11.1,6.7,10,7.3,10,8.9v0.1
					C10,7.5,11.1,6.8,12.5,7.6z"/>
        </g>
      </g>
      <g>
        <path class="st9" d="M41.8,28.9h-0.7v-1.9h0.7V28.9z"/>
        <path class="st9" d="M43.1,33v-6.1h1.9c0.9,0,1.7,0.3,2.2,0.8c0.6,0.6,0.8,1.3,0.8,2.2c0,0.9-0.3,1.6-0.8,2.2
				c-0.6,0.6-1.3,0.8-2.2,0.8H43.1z M43.9,32.3h1.1c0.7,0,1.3-0.2,1.7-0.6c0.4-0.4,0.6-1,0.6-1.7c0-0.7-0.2-1.3-0.6-1.7
				c-0.4-0.4-1-0.6-1.7-0.6h-1.1V32.3z"/>
        <path class="st9" d="M52.7,27.7h-2.8v1.9h2.5v0.7h-2.5v1.9h2.8V33h-3.6v-6.1h3.6V27.7z"/>
        <path class="st9" d="M53.8,33v-6.1h1l3,4.7h0l0-1.2v-3.6h0.8V33h-0.8l-3.1-5h0l0,1.2V33H53.8z"/>
        <path class="st9" d="M61.1,33l2.3-6.1h0.9l2.3,6.1h-0.9l-0.6-1.6h-2.6L61.9,33H61.1z M62.8,30.6h2l-1-2.7h0L62.8,30.6z"/>
        <path class="st9" d="M67.3,33v-6.1h0.8v5.3h2.6V33H67.3z"/>
        <path class="st9" d="M71.6,33v-6.1h0.8V33H71.6z"/>
        <path class="st9" d="M73.8,33v-6.1h1l3,4.7h0l0-1.2v-3.6h0.8V33h-0.8l-3.1-5h0l0,1.2V33H73.8z"/>
      </g>
    </g>
  </g>
</svg>

