<?xml version="1.0" encoding="utf-8"?>
<svg viewBox="0 0 543.171 149.896" xmlns="http://www.w3.org/2000/svg">
    <g fill="var(--geist-foreground)" transform="matrix(1, 0, 0, 1, -5.684341886080802e-14, -5.684341886080802e-14)">
        <path
            d="M 533.385 27.12 L 539.664 10.857 L 539.392 9.85 L 477.275 26.215 C 483.897 16.634 481.623 8.952 481.623 8.952 C 481.623 8.952 461.786 21.619 446.786 21.289 C 431.785 20.957 426.949 16.953 403.947 24.291 C 380.946 31.622 374.445 54.131 367.777 58.966 C 361.109 63.801 340.187 79.55 340.187 79.55 L 340.232 79.828 L 359.094 73.823 C 359.094 73.823 353.921 78.699 342.929 93.511 C 342.929 93.511 342.742 93.336 342.416 93.037 L 342.435 93.14 C 342.435 93.14 351.269 106.639 359.939 104.144 C 360.81 103.891 361.792 103.474 362.864 102.929 C 366.353 104.872 370.91 106.783 375.941 107.31 C 375.941 107.31 372.536 103.351 369.695 98.848 C 370.462 98.353 371.249 97.839 372.046 97.32 L 371.676 97.579 L 378.86 100.218 L 378.067 93.465 C 378.093 93.452 378.112 93.433 378.137 93.42 L 385.196 96.013 L 384.317 89.872 C 385.215 89.404 386.107 88.962 386.998 88.552 L 394.354 60.721 L 424.778 39.967 L 422.36 46.051 C 416.193 61.221 404.61 64.801 404.61 64.801 L 399.775 66.635 C 396.18 70.885 394.667 71.933 393.431 86.199 C 396.329 85.471 399.1 85.296 401.607 85.971 C 414.606 89.475 419.111 105.139 415.607 109.473 C 414.731 110.559 412.644 112.411 410.012 114.588 L 404.734 114.588 L 404.661 118.866 C 404.48 119.008 404.299 119.146 404.123 119.288 L 398.755 119.288 L 398.69 123.46 C 398.215 123.824 397.74 124.176 397.286 124.52 C 392.241 124.624 385.853 120.224 385.853 120.224 C 385.853 124.228 389.187 130.389 389.187 130.389 C 389.187 130.389 389.407 130.285 389.777 130.103 C 389.454 130.345 389.272 130.473 389.272 130.473 C 389.272 130.473 402.77 139.476 411.272 136.142 C 418.831 133.177 438.401 117.747 455.293 110.441 L 506.412 96.975 L 513.153 79.51 L 474.195 89.774 L 474.195 74.089 L 519.905 62.047 L 526.645 44.583 L 474.208 58.4 L 474.208 42.71 L 533.385 27.12 Z"
            style="" />
        <path
            d="M 273.205 19.708 C 278.038 19.708 281.664 20.406 283.928 21.104 L 279.704 34.513 C 277.891 33.951 276.235 33.678 273.813 33.678 C 267.021 33.678 263.091 40.242 261.884 46.244 L 261.278 49.174 L 275.189 49.171 L 275.185 49.154 L 294.964 49.154 L 294.964 49.174 L 295.416 82.001 C 295.562 88.429 295.719 93.179 295.562 98.204 L 295.867 98.204 C 297.376 92.618 298.885 88.004 301.452 80.742 L 312.627 49.174 L 331.651 49.174 L 307.5 102.945 C 300.248 118.593 291.947 131.721 282.889 139.4 C 278.508 143.171 273.383 146.108 270.207 147.36 L 262.66 133.109 C 265.982 131.567 269.452 129.752 272.47 127.523 C 276.706 124.304 280.773 120.396 282.585 116.625 C 282.889 115.647 283.183 114.948 283.037 113.552 L 276.685 61.466 L 259.014 61.467 L 247.39 117.477 L 228.512 117.477 L 240.137 61.467 L 242.714 49.174 L 243.312 46.381 C 244.979 38.283 248.301 31.294 254.485 25.99 C 259.014 22.082 265.659 19.708 273.205 19.708 Z M 88.433 48.067 C 95.832 48.067 103.233 49.181 107.76 50.859 L 99.615 88.837 C 97.802 96.798 96.44 110.071 96.597 117.468 L 80.286 117.468 L 80.342 116.262 C 80.5 113.008 80.755 109.622 80.887 106.027 L 80.435 106.027 C 74.545 115.112 67.448 118.602 61.557 118.602 C 50.835 118.602 45.551 110.08 45.551 98.067 C 45.551 77.395 56.727 48.067 88.433 48.067 Z M 193.384 30.732 L 189.611 49.174 L 230.993 49.174 L 216.8 117.477 L 197.924 117.477 L 209.56 61.466 L 187.043 61.467 L 180.545 93.172 C 180.093 95.547 179.936 97.64 179.936 98.901 C 179.936 103.09 182.2 104.63 185.68 104.63 C 187.043 104.63 189.003 104.63 190.817 104.349 L 188.552 117.477 C 185.083 118.32 180.848 118.593 177.221 118.593 C 165.902 118.593 160.305 112.726 160.305 103.507 C 160.305 100.433 160.913 96.662 161.667 93.308 L 168.166 61.459 L 159.561 61.459 L 162.127 49.164 L 170.733 49.164 L 173.753 35.056 L 193.384 30.732 Z M 141.301 48.058 C 147.798 48.058 152.474 49.174 155.189 50.57 L 151.112 63.28 C 148.993 62.166 145.525 61.186 142.359 61.186 C 136.322 61.186 132.547 64.113 132.547 68.729 C 132.547 72.219 134.665 74.313 138.134 76.97 C 146.437 82.835 149.161 89.535 149.161 94.848 C 149.161 109.935 137.831 118.312 120.924 118.312 C 114.132 118.312 108.084 116.499 105.517 114.821 L 110.035 102.527 C 113.052 104.068 116.679 105.457 121.961 105.321 C 127.403 105.183 130.42 101.965 130.42 97.64 C 130.42 93.87 128.461 91.213 123.325 87.442 C 116.985 82.69 113.965 76.688 113.965 70.824 C 113.965 58.248 124.53 48.058 141.301 48.058 Z M 49.021 19.708 C 53.854 19.708 57.481 20.406 59.745 21.104 L 55.519 34.513 C 53.706 33.951 52.05 33.678 49.629 33.678 C 42.838 33.678 38.906 40.242 37.702 46.244 L 37.094 49.174 L 51.442 49.174 L 48.874 61.467 L 34.829 61.467 L 23.206 117.477 L 4.328 117.477 L 15.951 61.467 L 18.53 49.174 L 19.127 46.381 C 20.795 38.283 24.117 31.294 30.301 25.99 C 34.829 22.082 41.475 19.708 49.021 19.708 Z M 83.158 61.05 C 70.78 61.05 64.135 83.815 63.977 93.878 C 63.977 99.889 64.889 104.214 69.565 104.214 C 74.701 104.214 79.532 96.39 82.247 83.961 L 87.08 61.467 C 85.571 61.186 84.207 61.05 83.158 61.05 Z M 226.15 20.958 C 232.344 20.958 235.216 25.283 235.058 30.035 C 234.913 37.014 229.777 40.931 224.19 40.931 C 218.152 40.931 215.437 36.879 215.583 31.712 C 215.583 26.689 219.505 20.958 226.15 20.958 Z"
            style="" />
    </g>
</svg>