<?xml version="1.0" encoding="UTF-8" standalone="no"?>
<svg width="600" height="89.227814" viewBox="0 0 600 89.227814" fill="none" version="1.1" id="svg1696"
   sodipodi:docname="meilisearch.svg" inkscape:version="1.1.2 (0a00cf5339, 2022-02-04)"
   xmlns:inkscape="http://www.inkscape.org/namespaces/inkscape"
   xmlns:sodipodi="http://sodipodi.sourceforge.net/DTD/sodipodi-0.dtd" xmlns:xlink="http://www.w3.org/1999/xlink"
   xmlns="http://www.w3.org/2000/svg" xmlns:svg="http://www.w3.org/2000/svg">
   <g id="g1896" transform="matrix(2.5495894,0,0,2.5495894,-196.34303,64.156641)">
      <path
         d="m 77.009667,9.833316 11.0875,-28.3681 c 1.5625,-3.99764 5.4158,-6.628735 9.7079,-6.628735 h 6.684503 L 93.402067,3.204516 c -1.5625,3.9977 -5.4158,6.6288 -9.70789,6.6288 z"
         fill="var(--geist-foreground)" id="path897" />

      <path
         d="m 93.275567,9.833416 11.087503,-28.36812 c 1.5624,-3.99763 5.4157,-6.628732 9.7078,-6.628732 h 6.6846 l -11.0876,28.368052 c -1.5624,3.9977 -5.4157,6.6288 -9.707803,6.6288 z"
         fill="var(--geist-foreground)" id="path899" />
      <path
         d="m 109.54237,9.833416 11.0875,-28.36812 c 1.5624,-3.99763 5.4157,-6.628732 9.7078,-6.628732 h 6.6845 l -11.0875,28.368052 c -1.5624,3.9977 -5.4157,6.6288 -9.7078,6.6288 z"
         fill="var(--geist-foreground)" id="path901" />
   </g>
   <path
      d="m 220.15449,50.968684 c 0,-5.985144 2.86957,-9.510535 8.36271,-9.510535 5.16523,0 6.88669,3.689488 6.88669,8.444614 v 25.497938 h 11.64209 V 48.590838 c 0,-10.002259 -5.24713,-17.134949 -15.5773,-17.134949 -6.14896,0 -10.49427,1.885557 -14.26566,6.066769 -2.45947,-3.771112 -6.64097,-6.066769 -12.46202,-6.066769 -6.14895,0 -10.41236,2.541378 -12.37982,6.230865 v -5.247133 h -10.74027 v 42.96108 h 11.6421 V 50.72268 c 0,-5.73914 2.95147,-9.264531 8.3627,-9.264531 5.16495,0 6.88669,3.689488 6.88669,8.444614 v 25.497938 h 11.64209 z"
      fill="var(--geist-foreground)" id="path1668" />
   <path
      d="m 294.83138,57.281456 c 0,0 0.16382,-1.557646 0.16382,-3.443202 0,-12.708016 -8.60871,-22.382365 -21.3156,-22.382365 -12.70801,0 -21.56244,9.674349 -21.56244,22.382365 0,13.19974 8.93633,22.546179 21.64435,22.546179 9.91922,0 17.79077,-5.985144 20.33271,-14.675479 h -11.724 c -1.39383,3.115291 -4.75541,4.673219 -8.2808,4.673219 -5.82105,0 -9.59244,-3.19748 -10.41236,-9.100717 z M 273.5977,40.802328 c 5.41094,0 8.93633,3.279388 9.7554,8.116703 h -19.51194 c 0.98373,-4.919222 4.42721,-8.116703 9.75654,-8.116703 z"
      fill="var(--geist-foreground)" id="path1670" />
   <path
      d="m 296.71242,42.441881 h 5.16579 v 32.95882 h 11.6421 v -42.96108 h -16.80789 z m 10.98684,-15.577304 c 4.09818,0 7.04965,-2.869542 7.04965,-6.968875 0,-4.099334 -2.95147,-7.050839 -7.04965,-7.050839 -4.101,0 -7.05248,2.951505 -7.05248,7.050839 0,4.099333 2.95148,6.968875 7.05248,6.968875 z"
      fill="var(--geist-foreground)" id="path1672" />
   <path
      d="m 337.62639,65.398159 c -0.32763,0 -0.81907,0.08191 -1.55623,0.08191 -2.62385,0 -2.95148,-1.229735 -2.95148,-3.033384 V 13.910671 H 321.47659 V 63.2666 c 0,8.526521 3.2791,12.297915 12.54307,12.297915 1.55906,0 3.03338,-0.163814 3.60673,-0.246003 z"
      fill="var(--geist-foreground)" id="path1674" />
   <path
      d="m 338.95103,42.441881 h 5.16579 v 32.95882 h 11.64209 v -42.96108 h -16.80788 z m 10.98683,-15.577304 c 4.09818,0 7.04966,-2.869542 7.04966,-6.968875 0,-4.099334 -2.95148,-7.050839 -7.04966,-7.050839 -4.09817,0 -7.04965,2.951505 -7.04965,7.050839 0,4.099333 2.95148,6.968875 7.04965,6.968875 z"
      fill="var(--geist-foreground)" id="path1676" />
   <path
      d="m 379.11936,75.850907 c 11.31446,0 16.64407,-5.985143 16.64407,-12.297915 0,-17.545049 -25.82613,-7.788793 -25.82613,-19.348981 0,-3.771394 3.1972,-6.968875 9.6735,-6.968875 6.64012,0 9.75541,3.607581 10.24968,8.116703 h 5.82104 c -0.49426,-5.65695 -4.34672,-13.19974 -15.90691,-13.19974 -9.91922,0 -15.49454,5.902954 -15.49454,12.297916 0,17.135231 25.82613,7.296786 25.82613,19.266791 0,4.181494 -3.93719,7.051065 -10.98684,7.051065 -7.21629,0 -10.82303,-3.607581 -11.23256,-8.936621 h -5.90296 c 0.49145,7.296785 5.08389,14.019657 17.13552,14.019657 z"
      fill="var(--geist-foreground)" id="path1678" />
   <path
      d="m 441.99571,55.682292 c 0,0 0.0819,-1.311925 0.0819,-2.213749 0,-11.805909 -7.62582,-21.316444 -20.08699,-21.316444 -12.54307,0 -20.49652,10.248263 -20.49652,21.808451 0,11.724001 7.37728,21.890357 20.57843,21.890357 9.91922,0 16.80789,-6.06705 19.26792,-14.019657 h -6.06677 c -1.80478,5.083036 -6.72485,8.772524 -13.11924,8.772524 -8.77253,0 -14.26595,-6.476868 -14.8393,-14.921482 z m -20.00509,-18.28306 c 8.19918,0 13.52878,5.493137 14.26595,13.527651 h -28.77761 c 0.98288,-7.706603 6.39439,-13.527651 14.51166,-13.527651 z"
      fill="var(--geist-foreground)" id="path1680" />
   <path
      d="m 478.21556,55.026471 v 3.935209 c 0,7.132971 -5.16579,12.051912 -15.08502,12.051912 -6.1515,0 -9.51251,-2.541378 -9.51251,-8.034514 0,-2.787663 1.31334,-4.919223 3.36101,-6.067051 2.13241,-1.147828 5.00198,-1.885556 21.23652,-1.885556 z m -15.7431,20.824436 c 7.21629,0 13.03734,-2.295656 15.98882,-7.050782 v 6.067051 h 5.57532 V 47.565588 c 0,-9.264531 -5.3296,-15.413489 -17.38123,-15.413489 -11.56019,0 -16.64407,5.821047 -17.70886,13.28193 h 5.65723 c 1.1467,-5.903237 5.65723,-8.2808 11.80591,-8.2808 7.86872,0 11.80591,3.279388 11.80591,10.330452 v 2.705474 c -13.20116,0 -18.69457,0.246004 -22.79275,1.885556 -4.75626,1.885839 -7.54392,6.067051 -7.54392,11.068181 0,7.296786 4.67435,12.708015 14.59357,12.708015 z"
      fill="var(--geist-foreground)" id="path1682" />
   <path
      d="m 515.86172,32.80792 c 0,0 -0.98571,-0.08191 -1.39525,-0.08191 -7.70773,0 -11.8059,4.017398 -13.36214,6.886969 v -6.477151 h -5.57532 v 41.731345 h 5.82104 V 51.172887 c 0,-8.690618 5.32678,-12.953737 12.46117,-12.953737 1.06479,0 2.0505,0.08191 2.0505,0.08191 z"
      fill="var(--geist-foreground)" id="path1684" />
   <path
      d="m 516.8559,54.042457 c 0,11.396091 7.86872,21.80845 20.57843,21.80845 11.31165,0 17.87268,-7.542789 19.51082,-15.823306 h -5.90295 c -1.72005,6.476868 -6.47631,10.576173 -13.60787,10.576173 -8.77252,0 -14.67548,-6.968875 -14.67548,-16.561317 0,-9.674349 5.90296,-16.643225 14.67548,-16.643225 7.13156,0 11.88782,4.099306 13.60787,10.576174 h 5.90295 c -1.63814,-8.280517 -8.19917,-15.823307 -19.51082,-15.823307 -12.70971,0 -20.57843,10.41236 -20.57843,21.890358 z"
      fill="var(--geist-foreground)" id="path1686" />
   <path
      d="M 570.64904,13.377202 H 564.828 v 61.489974 h 5.82104 V 50.189155 c 0,-8.526521 5.49342,-12.954019 12.5459,-12.954019 7.45919,0 10.98401,4.591312 10.98401,12.134102 V 74.867176 H 600 V 48.221409 c 0,-9.264531 -5.49059,-16.06931 -15.82218,-16.06931 -7.78964,0 -12.05163,4.263402 -13.52878,6.804779 z"
      fill="var(--geist-foreground)" id="path1688" />
</svg>