<svg width="201" height="30" viewBox="0 0 201 30" fill="none" xmlns="http://www.w3.org/2000/svg">
<path d="M5.24 29C4.4 29 4.32 28.64 4.44 27.88L8.6 4.2H1.88C1.08 4.2 0.88 3.88 1.04 3L1.28 1.52C1.44 0.719999 1.8 0.599998 2.52 0.599998H19.92C20.64 0.599998 20.84 0.919999 20.68 1.76L20.4 3.28C20.24 4.04 19.96 4.2 19.24 4.2H12.44L8.24 28.12C8.08 28.8 7.76 29 7.12 29H5.24ZM23.6881 29C22.9281 29 22.6081 28.84 22.8081 27.84L27.4481 1.56C27.5681 0.799998 27.9281 0.599998 28.6081 0.599998H30.4081C31.2881 0.599998 31.3681 0.919999 31.2481 1.72L29.2881 12.8H41.4081L43.4081 1.56C43.5281 0.759999 43.9281 0.599998 44.6881 0.599998H46.4081C47.2081 0.599998 47.3281 0.919999 47.2081 1.72L42.6081 27.92C42.4881 28.68 42.2481 29 41.5281 29H39.6481C38.8081 29 38.6081 28.76 38.7681 27.92L40.8081 16.4H28.6881L26.6081 28.08C26.4881 28.64 26.3281 29 25.5681 29H23.6881ZM52.5306 29C51.8106 29 51.6506 28.68 51.7706 27.92L56.4106 1.56C56.5306 0.759999 56.9306 0.599998 57.6506 0.599998H72.2106C73.0506 0.599998 73.1306 0.959999 73.0106 1.76L72.7306 3.24C72.6106 3.96 72.3306 4.2 71.6906 4.2H59.7706L58.2506 12.8H68.3306C69.0506 12.8 69.2906 13.08 69.1306 13.88L68.8506 15.44C68.7306 16.16 68.4506 16.4 67.8106 16.4H57.6506L56.0506 25.4H68.1706C69.0106 25.4 69.2106 25.72 69.0506 26.52L68.7706 28.08C68.6506 28.8 68.3306 29 67.7306 29H52.5306ZM76.5162 29C75.2762 29 75.0362 28.28 75.2362 27.04L79.5962 2.04C79.7962 0.799998 80.2762 0.599998 81.5162 0.599998H86.0762C87.3162 0.599998 87.6362 1.28 87.4362 2.52L83.9962 22H92.5562C93.8362 22 94.1962 22.6 93.9962 23.84L93.3562 27.56C93.1562 28.64 92.7962 29 91.5562 29H76.5162ZM99.5803 29C98.3803 29 98.0603 28.36 98.2603 27.16L102.66 2C102.86 0.799998 103.42 0.599998 104.46 0.599998H109.18C110.34 0.599998 110.7 1.24 110.5 2.44L106.1 27.6C105.9 28.8 105.3 29 104.26 29H99.5803ZM123.373 29.6C115.853 29.6 112.293 25.08 113.493 18.16L114.773 10.96C116.013 4.04 120.173 -9.53674e-07 127.533 -9.53674e-07C133.413 -9.53674e-07 136.933 2.64 137.693 7.4C137.853 8.32 137.613 9 136.813 9.2L132.253 10.4C131.013 10.72 130.773 10.4 130.333 8.96C129.893 7.52 128.693 7 127.133 7C124.253 7 123.093 8.6 122.613 11.4L121.333 18.68C120.813 21.48 121.933 22.6 124.373 22.6C126.933 22.6 128.373 21.4 128.613 19.64L128.693 19.08H125.533C124.333 19.08 123.933 18.44 124.173 17.16L124.693 14.16C124.933 12.88 125.133 12.68 126.333 12.68H135.813C137.013 12.68 137.573 13 137.293 14.64L136.333 19.92C135.253 25.92 130.813 29.6 123.373 29.6ZM141.958 29C140.718 29 140.438 28.32 140.638 27.08L145.038 2.04C145.278 0.759999 145.758 0.599998 146.998 0.599998H151.558C152.798 0.599998 153.078 1.28 152.878 2.52L151.358 11.12H157.838L159.438 2.08C159.678 0.799998 160.118 0.599998 161.398 0.599998H165.918C167.198 0.599998 167.518 1.24 167.278 2.52L162.878 27.56C162.678 28.8 162.158 29 160.878 29H156.318C155.038 29 154.838 28.32 155.038 27.08L156.598 18.12H150.118L148.478 27.56C148.278 28.8 147.758 29 146.518 29H141.958ZM176.447 29C175.207 29 174.687 28.32 174.927 27.08L178.367 7.6H173.127C171.887 7.6 171.407 6.92 171.607 5.64L172.247 2.04C172.487 0.799998 172.887 0.599998 174.127 0.599998H192.727C194.287 0.599998 194.487 1.28 194.247 2.52L193.607 6.12C193.407 7.4 193.087 7.6 191.847 7.6H186.287L182.767 27.56C182.527 28.8 182.247 29 181.007 29H176.447ZM194.75 29.32C192.35 29.32 191.59 28.32 192.03 25.96L192.31 24.32C192.75 21.96 193.43 21.4 195.83 21.4H197.35C199.71 21.4 200.47 22.44 200.07 24.8L199.79 26.44C199.35 28.8 198.63 29.32 196.27 29.32H194.75Z" fill="black"/>
</svg>
