<svg width="122" height="48" viewBox="0 0 122 48" fill="#000000" xmlns="http://www.w3.org/2000/svg">
    <path
        d="M2.04 35H7.32C9.672 35 10.44 34.472 11.112 32.984L12.84 29.528H23.256L23.736 32.984C23.88 34.472 24.504 35 27 35H31.944C33.384 35 33.96 34.328 33.72 33.032L27.96 2.504C27.72 1.256 27.144 0.919998 25.752 0.919998H20.328C18.936 0.919998 18.264 1.208 17.544 2.6L1.128 33.032C0.408 34.328 0.552 35 2.04 35ZM22.392 21.992H16.392L19.176 16.328C20.712 13.064 21.336 9.608 21.336 9.608H21.768C21.768 9.608 21.24 13.112 21.624 16.376L22.392 21.992ZM54.7973 0.199999C45.3413 0.199999 39.2933 4.712 37.8533 12.968L36.3173 21.848C34.9253 29.624 38.8133 35.048 47.1172 35.624L44.8613 39.32C44.2853 40.28 44.5733 40.664 45.3413 40.664H46.3493C47.9333 40.664 48.3653 41 48.2213 41.72C48.1253 42.296 47.5493 42.824 46.3493 42.824C45.1973 42.824 44.5733 42.536 43.8053 42.056C42.7973 41.528 42.3173 41.96 42.1733 42.872L41.7893 44.84C41.6933 45.56 41.8853 45.992 42.7973 46.328C43.6613 46.712 44.9573 47.096 46.3973 47.096C49.7093 47.096 53.3093 46.04 54.2693 42.536C54.9893 39.896 53.9813 37.544 51.0533 37.496H50.7173L51.7733 35.528C57.5813 34.808 61.7093 32.024 64.2533 27.416C65.0213 26.024 64.7812 25.304 63.3893 24.824L58.4933 22.904C57.1013 22.376 56.4773 22.712 55.6613 24.2C54.4613 26.264 52.7813 27.32 50.0933 27.32C46.3013 27.32 45.1013 25.688 45.6773 22.376L47.2613 13.544C47.8373 10.232 49.6133 8.6 53.4053 8.6C56.0933 8.6 57.3413 9.56 57.7733 11.72C58.1093 13.208 58.6373 13.448 60.1733 13.016L65.1173 11.336C66.6533 10.808 67.0373 10.136 66.7493 8.744C65.7413 3.368 62.1893 0.199999 54.7973 0.199999ZM71.7109 2.84L66.3829 33.08C66.1429 34.52 66.5269 35 67.9669 35H73.6309C75.0709 35 75.6469 34.52 75.8869 33.08L81.2149 2.84C81.5029 1.4 81.0709 0.919998 79.6309 0.919998H73.9669C72.5269 0.919998 71.9989 1.4 71.7109 2.84ZM109.473 32.648L105.297 20.648C104.721 19.016 104.097 18.008 102.849 17.096L114.225 3.032C115.137 1.784 114.849 0.919998 113.409 0.919998H107.889C105.393 0.919998 104.913 1.208 103.713 2.696L94.929 13.64H93.873L95.745 2.936C96.033 1.448 95.553 0.919998 94.065 0.919998H88.641C87.105 0.919998 86.529 1.448 86.241 2.936L80.961 32.984C80.673 34.472 81.105 35 82.641 35H88.065C89.553 35 90.177 34.472 90.465 32.984L92.385 21.944H93.201C95.073 21.944 95.649 22.808 96.129 24.392L98.769 32.984C99.345 34.664 100.113 35 102.657 35H107.841C109.425 35 109.953 33.944 109.473 32.648ZM115.147 35.384H116.923C119.803 35.384 120.859 34.472 121.387 31.64L121.723 29.672C122.203 26.84 121.483 25.928 118.603 25.928H116.779C113.947 25.928 112.843 26.84 112.363 29.672L111.979 31.64C111.499 34.472 112.267 35.384 115.147 35.384Z" />
</svg>