<?xml version="1.0" standalone="no"?>
<!DOCTYPE svg PUBLIC "-//W3C//DTD SVG 20010904//EN"
 "http://www.w3.org/TR/2001/REC-SVG-20010904/DTD/svg10.dtd">
<svg version="1.0" xmlns="http://www.w3.org/2000/svg"
 width="512.000000pt" height="512.000000pt" viewBox="0 0 512.000000 512.000000"
 preserveAspectRatio="xMidYMid meet">
<metadata>
Created by potrace 1.14, written by Peter Selinger 2001-2017
</metadata>
<g transform="translate(0.000000,512.000000) scale(0.100000,-0.100000)"
fill="#000000" stroke="none">
<path d="M2513 5101 c-30 -28 -32 -49 -30 -289 l2 -214 28 -24 c15 -13 34 -24
42 -24 29 0 64 23 74 49 12 32 11 436 -1 473 -16 44 -80 61 -115 29z"/>
<path d="M1267 4759 c-23 -24 -27 -34 -22 -59 5 -24 147 -278 215 -387 41 -64
140 -38 140 36 0 27 -195 380 -229 414 -30 30 -71 29 -104 -4z"/>
<path d="M3755 4767 c-36 -32 -235 -385 -235 -417 0 -56 65 -91 115 -63 16 9
178 277 226 374 21 42 18 75 -10 102 -28 28 -67 29 -96 4z"/>
<path d="M2389 4074 c-59 -7 -115 -14 -125 -18 -11 -3 -33 -8 -50 -11 -120
-20 -356 -121 -488 -209 -127 -84 -140 -99 -133 -150 6 -41 4 -44 -51 -99 -55
-54 -58 -56 -99 -50 -38 5 -45 2 -72 -26 -48 -52 -140 -197 -186 -296 -134
-284 -178 -584 -131 -890 69 -451 350 -858 751 -1089 141 -81 359 -158 505
-180 19 -3 58 -8 85 -12 124 -17 358 -5 490 27 22 5 49 11 61 13 34 7 174 57
241 87 297 133 561 380 719 674 176 327 225 743 128 1105 -124 460 -459 841
-898 1020 -96 39 -257 85 -326 94 -19 2 -55 7 -80 11 -80 11 -232 11 -341 -1z"/>
<path d="M364 3857 c-33 -29 -37 -79 -8 -107 35 -35 387 -230 414 -230 32 0
71 31 72 57 4 49 -13 72 -75 108 -34 20 -69 40 -77 45 -79 50 -267 150 -281
150 -10 0 -30 -11 -45 -23z"/>
<path d="M4667 3865 c-39 -20 -289 -165 -338 -196 -35 -22 -48 -37 -51 -59
-11 -71 56 -112 122 -76 108 58 348 201 362 214 10 9 19 28 21 42 5 26 -20 79
-38 81 -44 6 -58 5 -78 -6z"/>
<path d="M44 2627 c-21 -11 -37 -33 -41 -57 -4 -23 17 -68 35 -76 10 -4 120
-8 245 -9 226 -2 229 -2 256 21 15 13 28 31 29 41 1 29 -18 71 -36 79 -27 12
-466 13 -488 1z"/>
<path d="M4598 2628 c-32 -11 -55 -66 -39 -96 24 -45 33 -47 265 -48 121 -1
233 3 247 8 52 18 62 105 15 131 -26 14 -447 19 -488 5z"/>
<path d="M560 1494 c-102 -58 -191 -111 -198 -117 -42 -34 -31 -107 20 -128
26 -11 35 -9 75 10 38 18 277 156 351 202 60 37 34 139 -37 139 -16 0 -101
-42 -211 -106z"/>
<path d="M4312 1593 c-13 -5 -39 -52 -37 -68 3 -27 17 -51 37 -65 76 -48 383
-220 394 -220 29 0 64 24 73 52 19 54 -3 80 -119 144 -19 10 -36 22 -38 27 -2
4 -7 7 -12 7 -4 0 -58 29 -121 65 -104 60 -142 72 -177 58z"/>
<path d="M1495 835 c-23 -12 -55 -59 -140 -207 -60 -105 -111 -200 -112 -211
-4 -25 21 -65 50 -78 53 -24 79 4 202 221 33 58 65 114 72 125 47 77 43 123
-14 153 -26 14 -22 15 -58 -3z"/>
<path d="M3557 834 c-32 -17 -44 -57 -30 -95 22 -58 216 -381 238 -395 53 -34
125 19 109 82 -5 21 -154 285 -215 382 -12 20 -33 32 -65 38 -5 1 -22 -5 -37
-12z"/>
<path d="M2511 549 c-11 -11 -22 -34 -25 -51 -4 -28 -2 -421 2 -454 1 -6 17
-19 36 -29 29 -16 38 -17 64 -6 17 7 35 25 40 39 13 34 13 426 1 469 -15 48
-81 66 -118 32z"/>
</g>
</svg>
