<?xml version="1.0" standalone="no"?>
<!DOCTYPE svg PUBLIC "-//W3C//DTD SVG 20010904//EN"
 "http://www.w3.org/TR/2001/REC-SVG-20010904/DTD/svg10.dtd">
<svg version="1.0" xmlns="http://www.w3.org/2000/svg"
 width="512.000000pt" height="512.000000pt" viewBox="0 0 512.000000 512.000000"
 preserveAspectRatio="xMidYMid meet">
<metadata>
Created by potrace 1.14, written by Peter Selinger 2001-2017
</metadata>
<g transform="translate(0.000000,512.000000) scale(0.100000,-0.100000)"
fill="#000000" stroke="none">
<path d="M644 5113 c-19 -4 -24 -17 -40 -116 -22 -133 -24 -389 -5 -517 108
-718 610 -1280 1311 -1469 103 -28 251 -49 400 -57 69 -4 131 -11 138 -17 9
-7 12 -118 12 -493 l0 -484 -82 0 c-224 0 -613 -48 -868 -106 -285 -66 -525
-160 -689 -268 -89 -59 -176 -152 -209 -223 l-27 -58 -3 -380 c-3 -431 -3
-429 73 -509 196 -204 748 -356 1475 -406 187 -13 673 -13 860 0 727 50 1279
202 1475 406 76 80 76 78 73 509 l-3 380 -27 58 c-95 202 -422 381 -898 491
-255 58 -644 106 -868 106 l-82 0 0 484 c0 375 3 486 13 494 6 5 74 15 149 21
297 23 571 108 798 248 457 282 750 719 836 1245 24 144 24 420 0 553 -10 55
-20 102 -23 105 -10 11 -314 11 -398 0 -122 -16 -291 -56 -402 -96 -494 -178
-908 -602 -1068 -1092 -17 -50 -32 -92 -35 -92 -3 0 -13 27 -23 59 -31 99
-109 271 -167 366 -78 130 -160 235 -270 345 -281 281 -621 450 -1018 504
-102 15 -353 20 -408 9z"/>
</g>
</svg>
